# WaveFront *.obj file (generated by Autodesk ATF)

mtllib Base.mtl

g Body1

v 0.635000 0.000000 0.635000
v 0.470650 0.021637 0.635000
v 0.317500 0.085074 0.635000
v 0.185987 0.185987 0.635000
v 0.085074 0.317500 0.635000
v 0.021637 0.470650 0.635000
v 0.000000 0.635000 0.635000
v 0.000000 0.635000 0.000000
v 0.021637 0.470650 0.000000
v 0.085074 0.317500 0.000000
v 0.185987 0.185987 0.000000
v 0.317500 0.085074 0.000000
v 0.470650 0.021637 0.000000
v 0.635000 0.000000 0.000000
v 11.112500 0.000000 0.000000
v 21.590000 0.000000 0.000000
v 21.590000 0.000000 0.635000
v 11.112500 0.000000 0.635000
v 2.540000 1.270014 0.000000
v 7.620000 1.270014 0.000000
v 7.620000 1.905000 0.000000
v 2.540000 1.905000 0.000000
v 19.685000 1.270014 0.000000
v 19.685000 1.905000 0.000000
v 14.605000 1.905000 0.000000
v 14.605000 1.270014 0.000000
v 0.000000 2.540000 0.000000
v 0.021637 2.704350 0.000000
v 0.085074 2.857500 0.000000
v 0.185987 2.989013 0.000000
v 0.317500 3.089926 0.000000
v 0.470650 3.153363 0.000000
v 0.635000 3.175000 0.000000
v 11.112500 3.175000 0.000000
v 21.590000 3.175000 0.000000
v 21.754350 3.153363 0.000000
v 21.907500 3.089926 0.000000
v 22.039013 2.989013 0.000000
v 22.139926 2.857500 0.000000
v 22.203363 2.704350 0.000000
v 22.225000 2.540000 0.000000
v 22.225000 0.635000 0.000000
v 22.203363 0.470650 0.000000
v 22.139926 0.317500 0.000000
v 22.039013 0.185987 0.000000
v 21.907500 0.085074 0.000000
v 21.754350 0.021637 0.000000
v 11.112500 1.270014 0.000000
v 0.000000 2.540000 0.635000
v 0.021637 2.704350 0.635000
v 0.085074 2.857500 0.635000
v 0.185987 2.989013 0.635000
v 0.317500 3.089926 0.635000
v 0.470650 3.153363 0.635000
v 0.635000 3.175000 0.635000
v 11.112500 3.175000 0.635000
v 21.590000 3.175000 0.635000
v 21.754350 3.153363 0.635000
v 21.907500 3.089926 0.635000
v 22.039013 2.989013 0.635000
v 22.139926 2.857500 0.635000
v 22.203363 2.704350 0.635000
v 22.225000 2.540000 0.635000
v 22.225000 0.635000 0.635000
v 22.203363 0.470650 0.635000
v 22.139926 0.317500 0.635000
v 22.039013 0.185987 0.635000
v 21.907500 0.085074 0.635000
v 21.754350 0.021637 0.635000
v 19.685000 1.905000 0.635000
v 14.605000 1.905000 0.635000
v 14.605000 1.270014 0.635000
v 19.685000 1.270014 0.635000
v 7.620000 1.270014 0.635000
v 7.620000 1.905000 0.635000
v 2.540000 1.905000 0.635000
v 2.540000 1.270014 0.635000
v 11.112500 1.270014 0.635000
vt -0.000000 0.498728 0.000000
vt -0.635000 0.498728 0.000000
vt -0.000000 0.332485 0.000000
vt -0.635000 0.332485 0.000000
vt -0.000000 0.166243 0.000000
vt -0.635000 0.166243 0.000000
vt -0.000000 0.000000 0.000000
vt -0.635000 0.000000 0.000000
vt -0.000000 -0.166243 0.000000
vt -0.635000 -0.166243 0.000000
vt -0.000000 -0.332485 0.000000
vt -0.635000 -0.332485 0.000000
vt -0.000000 -0.498728 0.000000
vt -0.635000 -0.498728 0.000000
vt 0.635000 0.000000 0.000000
vt 11.112500 0.000000 0.000000
vt 0.635000 0.635000 0.000000
vt 11.112500 0.635000 0.000000
vt 21.590000 0.000000 0.000000
vt 21.590000 0.635000 0.000000
vt 3.492500 -0.317486 0.000000
vt 10.477500 -1.587500 0.000000
vt 8.572500 -0.317486 0.000000
vt 11.027426 -1.270000 0.000000
vt 11.090863 -1.116850 0.000000
vt 3.492500 0.317500 0.000000
vt 0.000000 -0.317486 0.000000
vt -0.000000 -1.587500 0.000000
vt 8.572500 0.317500 0.000000
vt 10.477500 1.587500 0.000000
vt 0.000000 1.587500 0.000000
vt -3.492500 0.317500 0.000000
vt -3.492500 -0.317486 0.000000
vt 11.112500 0.952500 0.000000
vt 11.090863 1.116850 0.000000
vt 11.027426 1.270000 0.000000
vt -8.572500 0.317500 0.000000
vt -11.112500 0.952500 0.000000
vt -8.572500 -0.317486 0.000000
vt -11.112500 -0.952500 0.000000
vt -11.090863 -1.116850 0.000000
vt -10.477500 1.587500 0.000000
vt -11.027426 1.270000 0.000000
vt -11.090863 1.116850 0.000000
vt -10.477500 -1.587500 0.000000
vt 10.641850 -1.565863 0.000000
vt 10.795000 -1.502426 0.000000
vt 10.926513 -1.401513 0.000000
vt 11.112500 -0.952500 0.000000
vt 10.926513 1.401513 0.000000
vt 10.795000 1.502426 0.000000
vt 10.641850 1.565863 0.000000
vt -10.641850 1.565863 0.000000
vt -10.795000 1.502426 0.000000
vt -10.926513 1.401513 0.000000
vt -11.027426 -1.270000 0.000000
vt -10.926513 -1.401513 0.000000
vt -10.795000 -1.502426 0.000000
vt -10.641850 -1.565863 0.000000
vt -0.000000 0.498728 0.000000
vt -0.635000 0.498728 0.000000
vt -0.000000 0.332485 0.000000
vt -0.635000 0.332485 0.000000
vt -0.000000 0.166243 0.000000
vt -0.635000 0.166243 0.000000
vt -0.000000 0.000000 0.000000
vt -0.635000 0.000000 0.000000
vt -0.000000 -0.166243 0.000000
vt -0.635000 -0.166243 0.000000
vt -0.000000 -0.332485 0.000000
vt -0.635000 -0.332485 0.000000
vt -0.000000 -0.498728 0.000000
vt -0.635000 -0.498728 0.000000
vt 21.590000 0.635000 0.000000
vt 11.112500 0.635000 0.000000
vt 21.590000 0.000000 0.000000
vt 11.112500 0.000000 0.000000
vt 0.635000 0.635000 0.000000
vt 0.635000 0.000000 0.000000
vt -0.000000 0.498728 0.000000
vt -0.635000 0.498728 0.000000
vt -0.000000 0.332485 0.000000
vt -0.635000 0.332485 0.000000
vt -0.000000 0.166243 0.000000
vt -0.635000 0.166243 0.000000
vt -0.000000 0.000000 0.000000
vt -0.635000 0.000000 0.000000
vt -0.000000 -0.166243 0.000000
vt -0.635000 -0.166243 0.000000
vt -0.000000 -0.332485 0.000000
vt -0.635000 -0.332485 0.000000
vt -0.000000 -0.498728 0.000000
vt -0.635000 -0.498728 0.000000
vt -0.000000 0.498728 0.000000
vt -0.635000 0.498728 0.000000
vt -0.000000 0.332485 0.000000
vt -0.635000 0.332485 0.000000
vt -0.000000 0.166243 0.000000
vt -0.635000 0.166243 0.000000
vt -0.000000 0.000000 0.000000
vt -0.635000 0.000000 0.000000
vt -0.000000 -0.166243 0.000000
vt -0.635000 -0.166243 0.000000
vt -0.000000 -0.332485 0.000000
vt -0.635000 -0.332485 0.000000
vt -0.000000 -0.498728 0.000000
vt -0.635000 -0.498728 0.000000
vt 0.000000 0.000000 0.000000
vt 5.080000 0.000000 0.000000
vt 0.000000 0.635000 0.000000
vt 5.080000 0.635000 0.000000
vt 0.000000 0.000000 0.000000
vt 0.634986 0.000000 0.000000
vt 0.000000 0.635000 0.000000
vt 0.634986 0.635000 0.000000
vt 0.000000 0.000000 0.000000
vt 5.080000 0.000000 0.000000
vt 0.000000 0.635000 0.000000
vt 5.080000 0.635000 0.000000
vt 0.000000 0.000000 0.000000
vt 0.634986 0.000000 0.000000
vt 0.000000 0.635000 0.000000
vt 0.634986 0.635000 0.000000
vt 0.000000 0.000000 0.000000
vt 0.634986 0.000000 0.000000
vt 0.000000 0.635000 0.000000
vt 0.634986 0.635000 0.000000
vt 0.000000 0.000000 0.000000
vt 5.080000 0.000000 0.000000
vt 0.000000 0.635000 0.000000
vt 5.080000 0.635000 0.000000
vt 0.000000 0.000000 0.000000
vt 0.634986 0.000000 0.000000
vt 0.000000 0.635000 0.000000
vt 0.634986 0.635000 0.000000
vt 0.000000 0.000000 0.000000
vt 5.080000 0.000000 0.000000
vt 0.000000 0.635000 0.000000
vt 5.080000 0.635000 0.000000
vt 2.540000 0.635000 0.000000
vt 0.635000 0.635000 0.000000
vt 2.540000 0.000000 0.000000
vt 0.635000 0.000000 0.000000
vt 2.540000 0.635000 0.000000
vt 0.635000 0.635000 0.000000
vt 2.540000 0.000000 0.000000
vt 0.635000 0.000000 0.000000
vt -11.112500 0.952500 0.000000
vt -11.112500 -0.952500 0.000000
vt -8.572500 -0.317486 0.000000
vt -11.090863 -1.116850 0.000000
vt -11.027426 -1.270000 0.000000
vt -10.477500 -1.587500 0.000000
vt -10.926513 -1.401513 0.000000
vt -10.795000 -1.502426 0.000000
vt -10.641850 -1.565863 0.000000
vt -3.492500 -0.317486 0.000000
vt 0.000000 -1.587500 0.000000
vt 0.000000 -0.317486 0.000000
vt 3.492500 -0.317486 0.000000
vt 3.492500 0.317500 0.000000
vt 10.477500 -1.587500 0.000000
vt 8.572500 -0.317486 0.000000
vt 11.027426 -1.270000 0.000000
vt 11.090863 -1.116850 0.000000
vt 10.641850 -1.565863 0.000000
vt 10.795000 -1.502426 0.000000
vt 10.926513 -1.401513 0.000000
vt 11.112500 -0.952500 0.000000
vt 11.112500 0.952500 0.000000
vt 8.572500 0.317500 0.000000
vt 11.090863 1.116850 0.000000
vt 11.027426 1.270000 0.000000
vt 10.477500 1.587500 0.000000
vt 10.926513 1.401513 0.000000
vt 10.795000 1.502426 0.000000
vt 10.641850 1.565863 0.000000
vt -0.000000 1.587500 0.000000
vt -3.492500 0.317500 0.000000
vt -10.477500 1.587500 0.000000
vt -8.572500 0.317500 0.000000
vt -11.027426 1.270000 0.000000
vt -11.090863 1.116850 0.000000
vt -10.641850 1.565863 0.000000
vt -10.795000 1.502426 0.000000
vt -10.926513 1.401513 0.000000
vn 0.000000 -1.000000 -0.000000
vn 0.000000 -1.000000 -0.000000
vn -0.258819 -0.965926 0.000000
vn -0.258819 -0.965926 0.000000
vn -0.500000 -0.866025 0.000000
vn -0.500000 -0.866025 0.000000
vn -0.707107 -0.707107 0.000000
vn -0.707107 -0.707107 0.000000
vn -0.866025 -0.500000 0.000000
vn -0.866025 -0.500000 0.000000
vn -0.965926 -0.258819 0.000000
vn -0.965926 -0.258819 0.000000
vn -1.000000 -0.000000 0.000000
vn -1.000000 -0.000000 0.000000
vn 0.000000 -1.000000 0.000000
vn 0.000000 -1.000000 0.000000
vn 0.000000 -1.000000 0.000000
vn 0.000000 -1.000000 0.000000
vn -0.000000 0.000000 -1.000000
vn -0.000000 0.000000 -1.000000
vn -0.000000 0.000000 -1.000000
vn -0.000000 0.000000 -1.000000
vn -0.000000 0.000000 -1.000000
vn -0.000000 0.000000 -1.000000
vn -0.000000 0.000000 -1.000000
vn -0.000000 0.000000 -1.000000
vn -0.000000 0.000000 -1.000000
vn -0.000000 0.000000 -1.000000
vn -0.000000 0.000000 -1.000000
vn -0.000000 0.000000 -1.000000
vn -0.000000 0.000000 -1.000000
vn -0.000000 0.000000 -1.000000
vn -0.000000 0.000000 -1.000000
vn -0.000000 0.000000 -1.000000
vn -0.000000 0.000000 -1.000000
vn -0.000000 0.000000 -1.000000
vn -0.000000 0.000000 -1.000000
vn -0.000000 0.000000 -1.000000
vn -0.000000 0.000000 -1.000000
vn -0.000000 0.000000 -1.000000
vn -0.000000 0.000000 -1.000000
vn -0.000000 0.000000 -1.000000
vn -0.000000 0.000000 -1.000000
vn -0.000000 0.000000 -1.000000
vn -0.000000 0.000000 -1.000000
vn -0.000000 0.000000 -1.000000
vn -0.000000 0.000000 -1.000000
vn -0.000000 0.000000 -1.000000
vn -0.000000 0.000000 -1.000000
vn -0.000000 0.000000 -1.000000
vn -0.000000 0.000000 -1.000000
vn -0.000000 0.000000 -1.000000
vn -0.000000 0.000000 -1.000000
vn -0.000000 0.000000 -1.000000
vn -0.000000 0.000000 -1.000000
vn -0.000000 0.000000 -1.000000
vn -0.000000 0.000000 -1.000000
vn -1.000000 0.000000 -0.000000
vn -1.000000 0.000000 -0.000000
vn -0.965926 0.258819 -0.000000
vn -0.965926 0.258819 -0.000000
vn -0.866025 0.500000 -0.000000
vn -0.866025 0.500000 -0.000000
vn -0.707107 0.707107 -0.000000
vn -0.707107 0.707107 -0.000000
vn -0.500000 0.866025 -0.000000
vn -0.500000 0.866025 -0.000000
vn -0.258819 0.965926 -0.000000
vn -0.258819 0.965926 -0.000000
vn -0.000000 1.000000 -0.000000
vn -0.000000 1.000000 -0.000000
vn 0.000000 1.000000 0.000000
vn 0.000000 1.000000 0.000000
vn 0.000000 1.000000 0.000000
vn 0.000000 1.000000 0.000000
vn 0.258819 0.965926 -0.000000
vn 0.258819 0.965926 -0.000000
vn 0.500000 0.866025 -0.000000
vn 0.500000 0.866025 -0.000000
vn 0.707107 0.707107 -0.000000
vn 0.707107 0.707107 -0.000000
vn 0.866025 0.500000 -0.000000
vn 0.866025 0.500000 -0.000000
vn 0.965926 0.258819 -0.000000
vn 0.965926 0.258819 -0.000000
vn 1.000000 -0.000000 -0.000000
vn 1.000000 -0.000000 -0.000000
vn 1.000000 -0.000000 -0.000000
vn 1.000000 -0.000000 -0.000000
vn 0.965926 -0.258819 -0.000000
vn 0.965926 -0.258819 -0.000000
vn 0.866025 -0.500000 -0.000000
vn 0.866025 -0.500000 -0.000000
vn 0.707107 -0.707107 -0.000000
vn 0.707107 -0.707107 -0.000000
vn 0.500000 -0.866025 -0.000000
vn 0.500000 -0.866025 -0.000000
vn 0.258819 -0.965926 -0.000000
vn 0.258819 -0.965926 -0.000000
vn 0.000000 -1.000000 0.000000
vn 0.000000 -1.000000 0.000000
vn 0.000000 -1.000000 0.000000
vn 0.000000 -1.000000 0.000000
vn 1.000000 0.000000 0.000000
vn 1.000000 0.000000 0.000000
vn 1.000000 0.000000 0.000000
vn 1.000000 0.000000 0.000000
vn 0.000000 1.000000 -0.000000
vn 0.000000 1.000000 -0.000000
vn 0.000000 1.000000 -0.000000
vn 0.000000 1.000000 -0.000000
vn -1.000000 0.000000 0.000000
vn -1.000000 0.000000 0.000000
vn -1.000000 0.000000 0.000000
vn -1.000000 0.000000 0.000000
vn -1.000000 0.000000 0.000000
vn -1.000000 0.000000 0.000000
vn -1.000000 0.000000 0.000000
vn -1.000000 0.000000 0.000000
vn 0.000000 -1.000000 0.000000
vn 0.000000 -1.000000 0.000000
vn 0.000000 -1.000000 0.000000
vn 0.000000 -1.000000 0.000000
vn 1.000000 -0.000000 0.000000
vn 1.000000 -0.000000 0.000000
vn 1.000000 -0.000000 0.000000
vn 1.000000 -0.000000 0.000000
vn 0.000000 1.000000 -0.000000
vn 0.000000 1.000000 -0.000000
vn 0.000000 1.000000 -0.000000
vn 0.000000 1.000000 -0.000000
vn 0.000000 0.000000 1.000000
vn 0.000000 0.000000 1.000000
vn 0.000000 0.000000 1.000000
vn 0.000000 0.000000 1.000000
vn 0.000000 0.000000 1.000000
vn 0.000000 0.000000 1.000000
vn 0.000000 0.000000 1.000000
vn 0.000000 0.000000 1.000000
vn 0.000000 0.000000 1.000000
vn 0.000000 0.000000 1.000000
vn 0.000000 0.000000 1.000000
vn 0.000000 0.000000 1.000000
vn 0.000000 0.000000 1.000000
vn 0.000000 0.000000 1.000000
vn 0.000000 0.000000 1.000000
vn 0.000000 0.000000 1.000000
vn 0.000000 0.000000 1.000000
vn 0.000000 0.000000 1.000000
vn 0.000000 0.000000 1.000000
vn 0.000000 0.000000 1.000000
vn 0.000000 0.000000 1.000000
vn 0.000000 0.000000 1.000000
vn 0.000000 0.000000 1.000000
vn 0.000000 0.000000 1.000000
vn 0.000000 0.000000 1.000000
vn 0.000000 0.000000 1.000000
vn 0.000000 0.000000 1.000000
vn 0.000000 0.000000 1.000000
vn 0.000000 0.000000 1.000000
vn 0.000000 0.000000 1.000000
vn 0.000000 0.000000 1.000000
vn 0.000000 0.000000 1.000000
vn 0.000000 0.000000 1.000000
vn 0.000000 0.000000 1.000000
vn 0.000000 0.000000 1.000000
vn 0.000000 0.000000 1.000000
vn 0.000000 0.000000 1.000000
vn 0.000000 0.000000 1.000000
vn 0.000000 0.000000 1.000000
usemtl Steel_-_Satin
f 14/1/1 1/2/2 13/3/3
f 13/3/3 1/2/2 2/4/4
f 13/3/3 2/4/4 12/5/5
f 12/5/5 2/4/4 3/6/6
f 12/5/5 3/6/6 11/7/7
f 11/7/7 3/6/6 4/8/8
f 11/7/7 4/8/8 10/9/9
f 10/9/9 4/8/8 5/10/10
f 10/9/9 5/10/10 9/11/11
f 9/11/11 5/10/10 6/12/12
f 9/11/11 6/12/12 8/13/13
f 8/13/13 6/12/12 7/14/14
f 14/15/1 15/16/15 1/17/2
f 1/17/2 15/16/15 18/18/16
f 18/18/16 15/16/15 16/19/17
f 18/18/16 16/19/17 17/20/18
f 20/21/19 14/22/20 19/23/21
f 19/23/21 14/22/20 10/24/22
f 19/23/21 10/24/22 9/25/23
f 21/26/24 48/27/25 20/21/19
f 20/21/19 48/27/25 15/28/26
f 20/21/19 15/28/26 14/22/20
f 22/29/27 33/30/28 21/26/24
f 21/26/24 33/30/28 34/31/29
f 21/26/24 34/31/29 48/27/25
f 48/27/25 34/31/29 25/32/30
f 48/27/25 25/32/30 26/33/31
f 19/23/21 27/34/32 22/29/27
f 22/29/27 27/34/32 28/35/33
f 22/29/27 28/35/33 29/36/34
f 24/37/35 41/38/36 23/39/37
f 23/39/37 41/38/36 42/40/38
f 23/39/37 42/40/38 43/41/39
f 25/32/30 35/42/40 24/37/35
f 24/37/35 35/42/40 39/43/41
f 24/37/35 39/43/41 40/44/42
f 23/39/37 16/45/43 26/33/31
f 26/33/31 16/45/43 15/28/26
f 26/33/31 15/28/26 48/27/25
f 13/46/44 12/47/45 14/22/20
f 14/22/20 12/47/45 11/48/46
f 14/22/20 11/48/46 10/24/22
f 9/25/23 8/49/47 19/23/21
f 19/23/21 8/49/47 27/34/32
f 22/29/27 29/36/34 33/30/28
f 33/30/28 29/36/34 30/50/48
f 33/30/28 30/50/48 31/51/49
f 31/51/49 32/52/50 33/30/28
f 34/31/29 35/42/40 25/32/30
f 36/53/51 37/54/52 35/42/40
f 35/42/40 37/54/52 38/55/53
f 35/42/40 38/55/53 39/43/41
f 40/44/42 41/38/36 24/37/35
f 43/41/39 44/56/54 23/39/37
f 23/39/37 44/56/54 16/45/43
f 44/56/54 45/57/55 16/45/43
f 16/45/43 45/57/55 46/58/56
f 16/45/43 46/58/56 47/59/57
f 27/60/58 49/61/59 28/62/60
f 28/62/60 49/61/59 50/63/61
f 28/62/60 50/63/61 29/64/62
f 29/64/62 50/63/61 51/65/63
f 29/64/62 51/65/63 30/66/64
f 30/66/64 51/65/63 52/67/65
f 30/66/64 52/67/65 31/68/66
f 31/68/66 52/67/65 53/69/67
f 31/68/66 53/69/67 32/70/68
f 32/70/68 53/69/67 54/71/69
f 32/70/68 54/71/69 33/72/70
f 33/72/70 54/71/69 55/73/71
f 55/74/71 56/75/72 33/76/70
f 33/76/70 56/75/72 34/77/73
f 34/77/73 56/75/72 57/78/74
f 34/77/73 57/78/74 35/79/75
f 35/80/75 57/81/74 36/82/76
f 36/82/76 57/81/74 58/83/77
f 36/82/76 58/83/77 37/84/78
f 37/84/78 58/83/77 59/85/79
f 37/84/78 59/85/79 38/86/80
f 38/86/80 59/85/79 60/87/81
f 38/86/80 60/87/81 39/88/82
f 39/88/82 60/87/81 61/89/83
f 39/88/82 61/89/83 40/90/84
f 40/90/84 61/89/83 62/91/85
f 40/90/84 62/91/85 41/92/86
f 41/92/86 62/91/85 63/93/87
f 42/94/88 64/95/89 43/96/90
f 43/96/90 64/95/89 65/97/91
f 43/96/90 65/97/91 44/98/92
f 44/98/92 65/97/91 66/99/93
f 44/98/92 66/99/93 45/100/94
f 45/100/94 66/99/93 67/101/95
f 45/100/94 67/101/95 46/102/96
f 46/102/96 67/101/95 68/103/97
f 46/102/96 68/103/97 47/104/98
f 47/104/98 68/103/97 69/105/99
f 47/104/98 69/105/99 16/106/17
f 16/106/17 69/105/99 17/107/18
f 25/108/100 24/109/101 71/110/102
f 71/110/102 24/109/101 70/111/103
f 26/112/104 25/113/105 72/114/106
f 72/114/106 25/113/105 71/115/107
f 23/116/108 26/117/109 73/118/110
f 73/118/110 26/117/109 72/119/111
f 24/120/112 23/121/113 70/122/114
f 70/122/114 23/121/113 73/123/115
f 21/124/116 20/125/117 75/126/118
f 75/126/118 20/125/117 74/127/119
f 22/128/120 21/129/121 76/130/122
f 76/130/122 21/129/121 75/131/123
f 19/132/124 22/133/125 77/134/126
f 77/134/126 22/133/125 76/135/127
f 20/136/128 19/137/129 74/138/130
f 74/138/130 19/137/129 77/139/131
f 63/140/87 64/141/89 41/142/86
f 41/142/86 64/141/89 42/143/88
f 7/144/14 49/145/59 8/146/13
f 8/146/13 49/145/59 27/147/58
f 49/148/132 7/149/133 77/150/134
f 77/150/134 7/149/133 6/151/135
f 77/150/134 6/151/135 5/152/136
f 77/150/134 5/152/136 1/153/137
f 1/153/137 5/152/136 4/154/138
f 1/153/137 4/154/138 3/155/139
f 3/155/139 2/156/140 1/153/137
f 77/150/134 1/153/137 74/157/141
f 74/157/141 1/153/137 18/158/142
f 74/157/141 18/158/142 78/159/143
f 78/159/143 18/158/142 72/160/144
f 78/159/143 72/160/144 71/161/145
f 18/158/142 17/162/146 72/160/144
f 72/160/144 17/162/146 73/163/147
f 73/163/147 17/162/146 66/164/148
f 73/163/147 66/164/148 65/165/149
f 69/166/150 68/167/151 17/162/146
f 17/162/146 68/167/151 67/168/152
f 17/162/146 67/168/152 66/164/148
f 65/165/149 64/169/153 73/163/147
f 73/163/147 64/169/153 63/170/154
f 73/163/147 63/170/154 70/171/155
f 70/171/155 63/170/154 62/172/156
f 70/171/155 62/172/156 61/173/157
f 70/171/155 61/173/157 57/174/158
f 57/174/158 61/173/157 60/175/159
f 57/174/158 60/175/159 59/176/160
f 59/176/160 58/177/161 57/174/158
f 70/171/155 57/174/158 71/161/145
f 71/161/145 57/174/158 56/178/162
f 71/161/145 56/178/162 78/159/143
f 78/159/143 56/178/162 75/179/163
f 78/159/143 75/179/163 74/157/141
f 56/178/162 55/180/164 75/179/163
f 75/179/163 55/180/164 76/181/165
f 76/181/165 55/180/164 51/182/166
f 76/181/165 51/182/166 50/183/167
f 54/184/168 53/185/169 55/180/164
f 55/180/164 53/185/169 52/186/170
f 55/180/164 52/186/170 51/182/166
f 50/183/167 49/148/132 76/181/165
f 76/181/165 49/148/132 77/150/134
# 78 vertices
# 186 texture params
# 170 normals
# 160 facets

# 1 groups
